<?xml version="1.0" encoding="UTF-8"?>
<svg width="94mm" height="22mm" version="1.1" viewBox="0 0 94 22" xmlns="http://www.w3.org/2000/svg" xmlns:cc="http://creativecommons.org/ns#" xmlns:dc="http://purl.org/dc/elements/1.1/" xmlns:rdf="http://www.w3.org/1999/02/22-rdf-syntax-ns#">
    <metadata>
        <rdf:RDF>
            <cc:Work rdf:about="">
                <dc:format>image/svg+xml</dc:format>
                <dc:type rdf:resource="http://purl.org/dc/dcmitype/StillImage"/>
            </cc:Work>
        </rdf:RDF>
    </metadata>
    <g transform="translate(0,-275)">
        <g transform="matrix(.46003 0 0 .46003 -1.1887 271.79)" fill="#fff">
            <g transform="matrix(.44587 0 0 .44587 95.208 -65.118)" stroke-width="25.402">
                <path d="m174.08 211.57c-3.2075 0-5.8077 2.6002-5.8077 5.8078 0 3.2075 2.6002 5.8077 5.8077 5.8077 3.2075 0 5.8077-2.6002 5.8077-5.8077 0-3.2076-2.6002-5.8078-5.8077-5.8078zm0.50879 8.7334c-0.16923 0.0146-0.33955 0.0146-0.50879 0-1.6339-0.14045-2.8446-1.5789-2.704-3.2128 0.12367-1.4391 1.2649-2.5803 2.704-2.704 1.6339-0.14058 3.0724 1.0701 3.2128 2.704 0.14058 1.6339-1.0701 3.0724-2.704 3.2128z"/>
                <path d="m211.19 211.57c-3.2075-0.012-5.8174 2.5783-5.8295 5.7858-0.012 3.2076 2.5784 5.8175 5.7858 5.8295 3.2076 0.0122 5.8175-2.5783 5.8295-5.7858 1.1e-4 -7e-3 1.1e-4 -0.0146 1.1e-4 -0.0216 0-3.1991-2.587-5.7958-5.786-5.8078zm2.9475 5.786c0.0122 1.6278-1.2977 2.9572-2.9256 2.9692-7e-3 1.1e-4 -0.0146 1.1e-4 -0.0219 1.1e-4v-0.0218c-1.6399 0.012-2.9791-1.3076-2.9911-2.9475-0.012-1.6399 1.3077-2.9791 2.9475-2.9911 1.6399-0.012 2.9791 1.3076 2.9911 2.9475 1e-4 0.0146 1e-4 0.029 0 0.0436z"/>
                <path d="m185.93 217.38c0.0122-7.5124-6.0681-13.612-13.58-13.624-7.5124-0.0122-13.612 6.0681-13.624 13.58-0.0121 7.5124 6.0681 13.612 13.58 13.624h0.0219c7.4989-0.012 13.578-6.0817 13.602-13.58zm-13.602 10.742c-5.9448 0-10.764-4.8193-10.764-10.764 0-5.9448 4.8192-10.764 10.764-10.764 5.9448 0 10.764 4.8191 10.764 10.764v0.0219c-0.012 5.9361-4.8277 10.742-10.764 10.742z"/>
                <path d="m212.88 203.82c-7.5124 0-13.602 6.0901-13.602 13.602 0 7.5124 6.0901 13.602 13.602 13.602 7.5124-1.1e-4 13.602-6.0901 13.602-13.602 0-0.0146-1.1e-4 -0.0291-1.1e-4 -0.0436-0.036-7.4904-6.1119-13.547-13.602-13.559zm10.764 13.602c-0.036 5.9192-4.8447 10.699-10.764 10.699v0.0437c-5.9448-1.2e-4 -10.764-4.8193-10.764-10.764 0-5.9447 4.8191-10.764 10.764-10.764 5.9448 0 10.764 4.8193 10.764 10.764v0.0216z"/>
                <path d="m199.43 234.3c-2.418 1.3208-5.0394 2.1058-7.7946 2.1178-3.0574 0.0259-6.0477-0.89726-8.5587-2.6419 0.28798-0.14752 0.58728-0.27172 0.89525-0.37113 0.60288-0.17484 0.94989-0.8053 0.77505-1.4082-0.17484-0.60301-0.80543-0.95002-1.4083-0.77518-2.1193 0.52345-3.7897 2.1522-4.3667 4.2576-0.0487 0.31918-0.0333 0.87435 0.39428 1.1326 0.84548 0.51063 1.6491-0.49388 2.0075-1.4602 2.9308 2.2064 6.506 3.3879 10.174 3.3625 3.1644-5e-3 6.2753-0.81689 9.0391-2.3581 0.51239-0.31957 0.70186-1.0161 0.34928-1.5065-0.69818-0.9711-1.5065-0.34929-1.5065-0.34929z"/>
                <path d="m240.8 210.17c-7e-3 0-0.0146-1.1e-4 -0.0219-1.1e-4h-2.751v-1.0698c0-9.6504-8.5588-17.467-19.061-17.467h-18.515v-1.0917c0-2.4116-1.9551-4.3667-4.3667-4.3667h-3.799c-0.57489-2.8016 0.0508-5.7159 1.7248-8.0348l2.5326 3.1222c0.67486 0.81234 1.6812 0.46871 1.9869 0.21841l8.7334-7.0959c0.60181-0.48321 0.69803-1.3627 0.21483-1.9644-6e-3 -8e-3 -0.0122-0.0151-0.0184-0.0225l-7.074-8.7335c-0.47593-0.60754-1.3541-0.71428-1.9617-0.23853-8e-3 7e-3 -0.017 0.0135-0.0252 0.0203l-8.7335 7.0741c-0.60181 0.50427-0.6891 1.3974-0.19657 2.0086l3.1222 3.8646c-2.2098 2.7451-3.1253 6.3114-2.5108 9.7814h-2.5981c-2.4118 0-4.3667 1.9551-4.3667 4.3667v1.0917h-14.367c-10.502 0-19.061 7.8383-19.061 17.467v1.0698h-2.7947c-2.4115-0.0241-4.386 1.9112-4.4102 4.3229-2.7e-4 0.0218-2.7e-4 0.0438-1.3e-4 0.0657v17.314c0 2.4118 1.955 4.3667 4.3667 4.3667h2.8722c0.35607 9.3444 8.75 16.856 19.027 16.856h11.419c0.1202 4.0256-0.96721 7.9949-3.1222 11.397-0.46788 0.6735-0.40431 1.5817 0.15286 2.1834 0.91127 1.006 2.2708 0.7861 2.2708 0.7861 8.7334-1.8341 14.759-11.179 16.834-14.345h22.663c10.502 0 19.061-7.8383 19.061-17.467v0.63314h2.7511c2.4116 0 4.3667-1.9551 4.3667-4.3667v-17.358c0.0122-2.4116-1.9331-4.3764-4.3449-4.3884zm-48.252-38.384 6.5501-5.3055 5.2837 6.5501-6.5501 5.3056zm-6.5501 18.711c0-0.85621 0.69403-1.5502 1.5501-1.5502h8.5806c0.8562 0 1.5502 0.69402 1.5502 1.5502v1.0917h-11.746zm-39.104 42.903c-0.85608 0.0122-1.5598-0.67217-1.5718-1.5281-1.3e-4 -7e-3 -1.3e-4 -0.0146-1.3e-4 -0.022v-17.292c-1.3e-4 -0.85607 0.69389-1.5502 1.55-1.5504 7e-3 0 2.8168 2.2e-4 2.8168 2.2e-4v20.393zm72.095 17.096h-23.973c-0.27141 0-0.52329 0.14111-0.66503 0.37256l-2.1518 3.5138c-2.8274 4.8257-7.2067 8.5507-12.423 10.568 1.8883-3.0849 2.9904-6.5861 3.2096-10.196v-3.3468c0-0.43069-0.34914-0.77982-0.77982-0.77982h-13.456c-8.9517 0-16.222-6.6592-16.222-14.869v-26.659c0-8.2095 7.2706-14.891 16.222-14.891h50.217c8.9517 0 16.222 6.6811 16.222 14.891l0.0219 26.528c0 8.2095-7.2706 14.869-16.222 14.869zm21.812-17.074h-2.7729v-20.414h2.7511c0.85621 0 1.5502 0.69403 1.5502 1.5501l0.0219 17.314c0 0.85621-0.69404 1.5502-1.5502 1.5502z"/>
            </g>
            <g stroke-width=".57514" aria-label="Built with Xatkit">
                <path d="m15.276 33.67q0 1.0166-0.38467 1.7951t-1.035 1.2822q-0.76935 0.60449-1.6944 0.86093-0.91589 0.25645-2.3355 0.25645h-4.8359v-13.638h4.0391q1.4929 0 2.2348 0.10991 0.74187 0.10991 1.4196 0.45794 0.75103 0.39383 1.0899 1.0166 0.33888 0.61364 0.33888 1.4746 0 0.97084-0.49458 1.6578-0.49458 0.67776-1.3189 1.0899v0.07327q1.383 0.28392 2.1798 1.2181 0.79682 0.92505 0.79682 2.3447zm-3.0499-6.1456q0-0.49458-0.16486-0.83346-0.16486-0.33888-0.53122-0.54953-0.43047-0.24729-1.0441-0.30224-0.61365-0.06411-1.5204-0.06411h-2.1615v3.9383h2.3447q0.85178 0 1.3555-0.08243 0.50374-0.09159 0.93421-0.36636 0.43047-0.27477 0.60449-0.70523 0.18318-0.43963 0.18318-1.035zm1.1632 6.2189q0-0.8243-0.24729-1.3097-0.24729-0.48542-0.89757-0.8243-0.43963-0.22897-1.0716-0.29308-0.6228-0.07327-1.5204-0.07327h-2.8484v5.074h2.3996q1.1907 0 1.9508-0.11907 0.76019-0.12822 1.2456-0.45794 0.5129-0.3572 0.75103-0.81514t0.23813-1.1815z"/>
                <path d="m26.194 37.865h-1.7219v-1.1357q-0.87009 0.68692-1.6669 1.0533-0.79682 0.36636-1.7585 0.36636-1.612 0-2.5095-0.98-0.89757-0.98916-0.89757-2.8942v-6.6402h1.7219v5.825q0 0.7785 0.07327 1.3372 0.07327 0.54953 0.3114 0.94336 0.24729 0.40299 0.64112 0.58617 0.39383 0.18318 1.1449 0.18318 0.6686 0 1.4563-0.34804 0.79682-0.34804 1.4837-0.88841v-7.6385h1.7219z"/>
                <path d="m31.432 25.922h-1.9417v-1.786h1.9417zm-0.10991 11.943h-1.7219v-10.23h1.7219z"/>
                <path d="m36.488 37.865h-1.7219v-14.251h1.7219z"/>
                <path d="m45.226 37.773q-0.48542 0.12822-1.0624 0.21065-0.56785 0.08243-1.0166 0.08243-1.5662 0-2.3813-0.84262-0.81514-0.84262-0.81514-2.7019v-5.4404h-1.1632v-1.4471h1.1632v-2.94h1.7219v2.94h3.5536v1.4471h-3.5536v4.6619q0 0.80598 0.03664 1.2639 0.03663 0.44878 0.25645 0.84262 0.2015 0.36636 0.54953 0.54037 0.3572 0.16486 1.0807 0.16486 0.42131 0 0.87925-0.11906 0.45794-0.12822 0.65944-0.21065h0.09159z"/>
                <path d="m66.777 27.634-2.6652 10.23h-1.5936l-2.6286-7.8858-2.6103 7.8858h-1.5845l-2.6927-10.23h1.7951l1.8776 7.9224 2.5553-7.9224h1.4196l2.6194 7.9224 1.7768-7.9224z"/>
                <path d="m71.109 25.922h-1.9417v-1.786h1.9417zm-0.10991 11.943h-1.7219v-10.23h1.7219z"/>
                <path d="m79.736 37.773q-0.48542 0.12822-1.0624 0.21065-0.56785 0.08243-1.0166 0.08243-1.5662 0-2.3813-0.84262-0.81514-0.84262-0.81514-2.7019v-5.4404h-1.1632v-1.4471h1.1632v-2.94h1.7219v2.94h3.5536v1.4471h-3.5536v4.6619q0 0.80598 0.03664 1.2639 0.03664 0.44878 0.25645 0.84262 0.2015 0.36636 0.54953 0.54037 0.3572 0.16486 1.0807 0.16486 0.42131 0 0.87925-0.11906 0.45794-0.12822 0.65944-0.21065h0.09159z"/>
                <path d="m90.379 37.865h-1.7219v-5.825q0-0.70523-0.08243-1.3189-0.08243-0.6228-0.30224-0.97084-0.22897-0.38467-0.65944-0.56785-0.43047-0.19234-1.1174-0.19234-0.70523 0-1.4746 0.34804t-1.4746 0.88841v7.6385h-1.7219v-14.251h1.7219v5.1564q0.80598-0.6686 1.6669-1.0441 0.86093-0.37551 1.7677-0.37551 1.6578 0 2.5279 0.99832 0.87009 0.99832 0.87009 2.8759z"/>
                <path d="m110.83 24.227-4.7077 6.7409 4.6985 6.8966h-2.0974l-3.7185-5.6144-3.8101 5.6144h-1.9783l4.7535-6.8142-4.6436-6.8234h2.0882l3.6727 5.5411 3.7551-5.5411z"/>
                <path d="m120.66 37.865h-1.7127v-1.0899q-0.22897 0.1557-0.62281 0.43963-0.38467 0.27477-0.75102 0.43963-0.43047 0.21065-0.98916 0.34804-0.5587 0.14654-1.3097 0.14654-1.383 0-2.3447-0.91589-0.96168-0.91589-0.96168-2.3355 0-1.1632 0.49458-1.8776 0.50374-0.72355 1.4288-1.1357 0.9342-0.41215 2.2439-0.55869t2.8118-0.21981v-0.26561q0-0.58617-0.21066-0.97084-0.20149-0.38467-0.58617-0.60449-0.36635-0.21065-0.87925-0.28392-0.51289-0.07327-1.0716-0.07327-0.67775 0-1.5112 0.18318-0.83346 0.17402-1.7219 0.5129h-0.0916v-1.7493q0.50374-0.13738 1.4563-0.30224 0.95253-0.16486 1.8776-0.16486 1.0808 0 1.8776 0.18318 0.80598 0.17402 1.3922 0.60449 0.57701 0.42131 0.87925 1.0899 0.30225 0.6686 0.30225 1.6578zm-1.7127-2.5187v-2.8484q-0.78767 0.04579-1.8593 0.13738-1.0624 0.09159-1.6852 0.26561-0.74187 0.21065-1.1998 0.65944-0.45795 0.43963-0.45795 1.2181 0 0.87925 0.53122 1.328 0.53121 0.43963 1.6211 0.43963 0.90673 0 1.6578-0.34804 0.75103-0.3572 1.3922-0.85178z"/>
                <path d="m129.3 37.773q-0.48542 0.12822-1.0624 0.21065-0.56785 0.08243-1.0166 0.08243-1.5662 0-2.3813-0.84262-0.81514-0.84262-0.81514-2.7019v-5.4404h-1.1632v-1.4471h1.1632v-2.94h1.7219v2.94h3.5536v1.4471h-3.5536v4.6619q0 0.80598 0.0366 1.2639 0.0366 0.44878 0.25645 0.84262 0.20149 0.36636 0.54953 0.54037 0.3572 0.16486 1.0808 0.16486 0.42131 0 0.87925-0.11906 0.45794-0.12822 0.65944-0.21065h0.0916z"/>
                <path d="m140.68 37.865h-2.2714l-4.1032-4.4787-1.1174 1.0624v3.4163h-1.7219v-14.251h1.7219v9.1406l4.9733-5.1198h2.1707l-4.7535 4.726z"/>
                <path d="m144.34 25.922h-1.9417v-1.786h1.9417zm-0.10991 11.943h-1.7219v-10.23h1.7219z"/>
                <path d="m152.97 37.773q-0.48542 0.12822-1.0624 0.21065-0.56785 0.08243-1.0166 0.08243-1.5662 0-2.3813-0.84262-0.81514-0.84262-0.81514-2.7019v-5.4404h-1.1632v-1.4471h1.1632v-2.94h1.7219v2.94h3.5536v1.4471h-3.5536v4.6619q0 0.80598 0.0366 1.2639 0.0366 0.44878 0.25645 0.84262 0.20149 0.36636 0.54953 0.54037 0.3572 0.16486 1.0808 0.16486 0.42131 0 0.87925-0.11906 0.45795-0.12822 0.65944-0.21065h0.0916z"/>
            </g>
        </g>
    </g>
</svg>
