<?xml version="1.0" encoding="UTF-8" standalone="no"?>


<svg
   xmlns:svg="http://www.w3.org/2000/svg"
   xmlns="http://www.w3.org/2000/svg"

   width="94mm"
   height="22mm"
   viewBox="0 0 94 22"
   version="1.1"
   id="svg4783">



  <g

     id="layer1"
     transform="translate(0,-275)">
    <g
       id="g4765"
       transform="matrix(0.46003372,0,0,0.46003372,-1.1887368,271.79357)"
       style="stroke-width:2.17375374">
      <g
         style="stroke-width:4.87534332"
         transform="matrix(0.44586679,0,0,0.44586679,95.207855,-65.117687)"
         id="g9340">
        <path
           style="fill:#ee2a14;stroke-width:25.40159988"
           d="m 174.07714,211.57077 c -3.20748,0 -5.80768,2.6002 -5.80768,5.80781 0,3.20748 2.6002,5.80768 5.80768,5.80768 3.20747,0 5.80768,-2.6002 5.80768,-5.80768 0,-3.20761 -2.60021,-5.80781 -5.80768,-5.80781 z m 0.50879,8.73344 c -0.16923,0.0146 -0.33955,0.0146 -0.50879,0 -1.63392,-0.14045 -2.84461,-1.57889 -2.70402,-3.21281 0.12367,-1.43909 1.26493,-2.58034 2.70402,-2.70402 1.63392,-0.14058 3.07235,1.0701 3.21281,2.70402 0.14058,1.63392 -1.0701,3.07235 -2.70402,3.21281 z"
           id="path3"
        />
        <path
           style="fill:#ee2a14;stroke-width:25.40159988"
           d="m 211.19426,211.57077 c -3.20748,-0.012 -5.8174,2.57834 -5.82954,5.78582 -0.012,3.20761 2.57836,5.81754 5.78584,5.82953 3.20761,0.0122 5.81754,-2.57834 5.82953,-5.78582 1.1e-4,-0.007 1.1e-4,-0.0146 1.1e-4,-0.0216 0,-3.19907 -2.58701,-5.79581 -5.78595,-5.80781 z m 2.94749,5.78595 c 0.0122,1.6278 -1.2977,2.95722 -2.92563,2.96921 -0.007,1.1e-4 -0.0146,1.1e-4 -0.0219,1.1e-4 v -0.0218 c -1.63992,0.012 -2.97907,-1.30757 -2.99106,-2.94748 -0.012,-1.63992 1.3077,-2.97907 2.94749,-2.99107 1.63992,-0.012 2.97906,1.30757 2.99106,2.94749 1e-4,0.0146 1e-4,0.029 0,0.0436 z"
           id="path5"
            />
        <path
           style="fill:#ee2a14;stroke-width:25.40159988"
           d="m 185.93277,217.37858 c 0.0122,-7.51236 -6.06808,-13.61215 -13.58044,-13.62415 -7.51236,-0.0122 -13.61215,6.06808 -13.62414,13.58044 -0.0121,7.51237 6.06807,13.61202 13.58044,13.62415 0.007,0 0.0146,0 0.0219,0 7.4989,-0.012 13.5783,-6.08167 13.60229,-13.58044 z m -13.60229,10.7421 c -5.94481,0 -10.76396,-4.81928 -10.76396,-10.76396 0,-5.9448 4.81915,-10.76394 10.76396,-10.76394 5.9448,0 10.76395,4.81914 10.76395,10.76394 0,0.007 0,0.0146 0,0.0219 -0.012,5.93614 -4.82768,10.74209 -10.76395,10.74209 z"
           id="path7"
          />
        <path
           style="fill:#ee2a14;stroke-width:25.40159988"
           d="m 212.8755,203.81986 c -7.51238,0 -13.6023,6.09007 -13.6023,13.60243 0,7.51237 6.09006,13.60229 13.60243,13.60229 7.51236,-1.1e-4 13.60229,-6.09006 13.60229,-13.60242 0,-0.0146 -1.1e-4,-0.0291 -1.1e-4,-0.0436 -0.036,-7.49038 -6.11194,-13.54686 -13.60231,-13.55872 z m 10.76394,13.6023 c -0.036,5.91921 -4.84473,10.69864 -10.76394,10.69852 v 0.0437 c -5.94482,-1.2e-4 -10.76396,-4.81928 -10.76396,-10.76409 0,-5.94467 4.81914,-10.76395 10.76396,-10.76395 5.9448,0 10.76394,4.81928 10.76394,10.76409 0,0.007 0,0.0146 0,0.0216 z"
           id="path9"
            />
        <path
           style="fill:#ee2a14;stroke-width:25.40159988"
           d="m 199.42592,234.29962 c -2.41804,1.32076 -5.03943,2.1058 -7.79462,2.1178 -3.05742,0.0259 -6.04768,-0.89726 -8.55873,-2.64192 0.28798,-0.14752 0.58728,-0.27172 0.89525,-0.37113 0.60288,-0.17484 0.94989,-0.8053 0.77505,-1.40818 -0.17484,-0.60301 -0.80543,-0.95002 -1.40831,-0.77518 -2.11926,0.52345 -3.78969,2.15218 -4.36672,4.25758 -0.0487,0.31918 -0.0333,0.87435 0.39428,1.13263 0.84548,0.51063 1.6491,-0.49388 2.0075,-1.46019 2.93082,2.20642 6.50597,3.38792 10.1744,3.36246 3.16444,-0.005 6.2753,-0.81689 9.03914,-2.35806 0.51239,-0.31957 0.70186,-1.01613 0.34928,-1.50652 -0.69818,-0.9711 -1.50652,-0.34929 -1.50652,-0.34929 z"
           id="path11"
            />
        <path
           style="fill:#ee2a14;stroke-width:25.40159988"
           d="m 240.80063,210.17352 c -0.007,0 -0.0146,-1.1e-4 -0.0219,-1.1e-4 h -2.75104 v -1.06983 c 0,-9.65041 -8.55875,-17.46688 -19.0607,-17.46688 h -18.51486 v -1.09168 c 0,-2.41164 -1.95508,-4.36672 -4.36672,-4.36672 h -3.79902 c -0.57489,-2.80157 0.0508,-5.71586 1.72481,-8.03475 l 2.53264,3.12219 c 0.67486,0.81234 1.6812,0.46871 1.98693,0.21841 l 8.73344,-7.09592 c 0.60181,-0.48321 0.69803,-1.36273 0.21483,-1.96441 -0.006,-0.008 -0.0122,-0.0151 -0.0184,-0.0225 l -7.07403,-8.73347 c -0.47593,-0.60754 -1.35412,-0.71428 -1.96166,-0.23853 -0.008,0.007 -0.017,0.0135 -0.0252,0.0203 l -8.73346,7.07406 c -0.60181,0.50427 -0.6891,1.39739 -0.19657,2.00865 l 3.12219,3.8646 c -2.20975,2.74506 -3.12526,6.31141 -2.51078,9.78141 H 187.483 c -2.41177,0 -4.36672,1.95508 -4.36672,4.36672 v 1.09168 h -14.36656 c -10.50196,0 -19.0607,7.83832 -19.0607,17.46688 v 1.06983 h -2.79474 c -2.41151,-0.0241 -4.38605,1.91124 -4.41017,4.32288 -2.7e-4,0.0218 -2.7e-4,0.0438 -1.3e-4,0.0657 V 231.876 c 0,2.41177 1.95495,4.36673 4.36672,4.36673 h 2.87219 c 0.35607,9.34444 8.74997,16.85561 19.02685,16.85561 h 11.41892 c 0.1202,4.02557 -0.96721,7.99491 -3.12219,11.39707 -0.46788,0.6735 -0.40431,1.58169 0.15286,2.18337 0.91127,1.00595 2.27078,0.7861 2.27078,0.7861 8.73344,-1.83408 14.7594,-11.17879 16.83362,-14.34469 h 22.66329 c 10.50197,0 19.0607,-7.83832 19.0607,-17.46689 v 0.63314 h 2.75106 c 2.41164,0 4.36671,-1.95509 4.36671,-4.36672 v -17.35775 c 0.0122,-2.41164 -1.93308,-4.37644 -4.34486,-4.38844 z M 192.54841,171.79 l 6.55008,-5.30554 5.2837,6.55008 -6.55008,5.30555 z m -6.55008,18.71142 c 0,-0.85621 0.69403,-1.55023 1.5501,-1.55023 h 8.5806 c 0.8562,0 1.55023,0.69402 1.55023,1.55023 v 1.09168 h -11.74649 z m -39.10405,42.90295 c -0.85608,0.0122 -1.55983,-0.67217 -1.57183,-1.52811 -1.3e-4,-0.007 -1.3e-4,-0.0146 -1.3e-4,-0.022 v -17.2923 c -1.3e-4,-0.85607 0.69389,-1.55023 1.54997,-1.55037 0.007,0 2.81675,2.2e-4 2.81675,2.2e-4 v 20.39256 z m 72.0946,17.09575 H 195.0158 c -0.27141,0 -0.52329,0.14111 -0.66503,0.37256 l -2.15177,3.51375 c -2.82741,4.82568 -7.20666,8.55074 -12.42332,10.56753 1.88831,-3.08488 2.99039,-6.58607 3.2096,-10.19626 v -3.34676 c 0,-0.43069 -0.34914,-0.77982 -0.77982,-0.77982 h -13.45572 c -8.95173,0 -16.22236,-6.65923 -16.22236,-14.86868 v -26.65888 c 0,-8.20946 7.27063,-14.89053 16.22236,-14.89053 h 50.21728 c 8.95172,0 16.22235,6.68107 16.22235,14.89053 l 0.0219,26.52788 c 0,8.20946 -7.27063,14.86868 -16.22235,14.86868 z m 21.81175,-17.07389 h -2.77292 v -20.41437 h 2.75106 c 0.85621,0 1.55023,0.69403 1.55023,1.5501 l 0.0219,17.31403 c 0,0.85621 -0.69404,1.55024 -1.55024,1.55024 z"
           id="path13"
          />
      </g>
      <g
         aria-label="Built with Xatkit"
         style="font-style:normal;font-variant:normal;font-weight:normal;font-stretch:normal;font-size:18.75738335px;line-height:1.25;font-family:Onyx;-inkscape-font-specification:Onyx;letter-spacing:0px;word-spacing:0px;fill:#ee2a14;fill-opacity:1;stroke:none;stroke-width:0.57513905"
         id="text4754">
        <path
           d="m 15.276197,33.670167 q 0,1.016635 -0.384673,1.79514 -0.384673,0.778505 -1.034953,1.282243 -0.769346,0.604486 -1.694393,0.860934 -0.915888,0.256449 -2.3355138,0.256449 H 4.9907764 v -13.63757 h 4.0390654 q 1.4928972,0 2.2347662,0.109906 0.741869,0.109907 1.419626,0.457944 0.751028,0.393832 1.089907,1.016636 0.338878,0.613645 0.338878,1.474579 0,0.970841 -0.494579,1.657757 -0.494579,0.677757 -1.318879,1.089907 v 0.07327 q 1.382991,0.283925 2.179814,1.218131 0.796822,0.925046 0.796822,2.344674 z M 12.22629,27.524559 q 0,-0.494579 -0.164859,-0.833458 -0.16486,-0.338878 -0.531215,-0.549533 -0.430468,-0.247289 -1.044112,-0.302243 -0.6136454,-0.06411 -1.5203743,-0.06411 H 6.8042343 v 3.938318 h 2.3446729 q 0.8517758,0 1.3555138,-0.08243 0.503739,-0.09159 0.934206,-0.366355 0.430467,-0.274766 0.604486,-0.705234 0.183177,-0.439626 0.183177,-1.034953 z m 1.163178,6.218879 q 0,-0.824299 -0.24729,-1.30972 -0.247289,-0.485421 -0.89757,-0.824299 -0.439626,-0.228972 -1.071589,-0.293084 -0.622803,-0.07327 -1.5203734,-0.07327 H 6.8042343 v 5.074019 h 2.3996262 q 1.1906545,0 1.9508415,-0.119066 0.760187,-0.128224 1.245607,-0.457944 0.512897,-0.357196 0.751028,-0.81514 0.238131,-0.457944 0.238131,-1.181495 z"
           style="font-style:normal;font-variant:normal;font-weight:normal;font-stretch:normal;font-family:sans-serif;-inkscape-font-specification:sans-serif;fill:#ee2a14;fill-opacity:1;stroke-width:0.57513905"
           id="path4767"
           />
        <path
           d="m 26.193581,37.864933 h -1.721869 v -1.135701 q -0.870094,0.686916 -1.666916,1.053271 -0.796823,0.366355 -1.758505,0.366355 -1.611963,0 -2.509533,-0.98 -0.89757,-0.989159 -0.89757,-2.894205 v -6.640187 h 1.721869 v 5.825046 q 0,0.778505 0.07327,1.337197 0.07327,0.549532 0.311402,0.943364 0.24729,0.402991 0.641122,0.586168 0.393832,0.183178 1.14486,0.183178 0.668598,0 1.456261,-0.348037 0.796823,-0.348038 1.483739,-0.888412 v -7.638504 h 1.721869 z"
           style="font-style:normal;font-variant:normal;font-weight:normal;font-stretch:normal;font-family:sans-serif;-inkscape-font-specification:sans-serif;fill:#ee2a14;fill-opacity:1;stroke-width:0.57513905"
           id="path4769"
          />
        <path
           d="M 31.43246,25.921755 H 29.490778 V 24.135774 H 31.43246 Z M 31.322553,37.864933 H 29.600684 V 27.634466 h 1.721869 z"
           style="font-style:normal;font-variant:normal;font-weight:normal;font-stretch:normal;font-family:sans-serif;-inkscape-font-specification:sans-serif;fill:#ee2a14;fill-opacity:1;stroke-width:0.57513905"
           id="path4771"
          />
        <path
           d="M 36.488161,37.864933 H 34.766292 V 23.613718 h 1.721869 z"
           style="font-style:normal;font-variant:normal;font-weight:normal;font-stretch:normal;font-family:sans-serif;-inkscape-font-specification:sans-serif;fill:#ee2a14;fill-opacity:1;stroke-width:0.57513905"
           id="path4773"
           />
        <path
           d="m 45.225731,37.773344 q -0.485421,0.128225 -1.06243,0.210654 -0.56785,0.08243 -1.016635,0.08243 -1.566169,0 -2.381309,-0.842616 -0.81514,-0.842617 -0.81514,-2.70187 v -5.440374 h -1.163178 v -1.447102 h 1.163178 v -2.94 h 1.721869 v 2.94 h 3.553645 v 1.447102 h -3.553645 v 4.66187 q 0,0.805981 0.03664,1.263925 0.03663,0.448785 0.256448,0.842617 0.201496,0.366355 0.549533,0.540374 0.357196,0.164859 1.080748,0.164859 0.421308,0 0.879252,-0.119065 0.457944,-0.128224 0.659439,-0.210654 h 0.09159 z"
           style="font-style:normal;font-variant:normal;font-weight:normal;font-stretch:normal;font-family:sans-serif;-inkscape-font-specification:sans-serif;fill:#ee2a14;fill-opacity:1;stroke-width:0.57513905"
           id="path4775"
           />
        <path
           d="m 66.776572,27.634466 -2.665234,10.230467 h -1.593644 l -2.628599,-7.885794 -2.61028,7.885794 h -1.584486 l -2.69271,-10.230467 h 1.79514 l 1.87757,7.92243 2.555327,-7.92243 h 1.419626 l 2.61944,7.92243 1.776822,-7.92243 z"
           style="font-style:normal;font-variant:normal;font-weight:normal;font-stretch:normal;font-family:sans-serif;-inkscape-font-specification:sans-serif;fill:#ee2a14;fill-opacity:1;stroke-width:0.57513905"
           id="path4777"
          />
        <path
           d="M 71.108722,25.921755 H 69.16704 v -1.785981 h 1.941682 z M 70.998815,37.864933 H 69.276946 V 27.634466 h 1.721869 z"
           style="font-style:normal;font-variant:normal;font-weight:normal;font-stretch:normal;font-family:sans-serif;-inkscape-font-specification:sans-serif;fill:#ee2a14;fill-opacity:1;stroke-width:0.57513905"
           id="path4779"
           />
        <path
           d="m 79.736382,37.773344 q -0.485421,0.128225 -1.06243,0.210654 -0.567851,0.08243 -1.016636,0.08243 -1.566168,0 -2.381308,-0.842616 -0.81514,-0.842617 -0.81514,-2.70187 V 29.081568 H 73.29769 v -1.447102 h 1.163178 v -2.94 h 1.721869 v 2.94 h 3.553645 v 1.447102 h -3.553645 v 4.66187 q 0,0.805981 0.03664,1.263925 0.03664,0.448785 0.256449,0.842617 0.201495,0.366355 0.549533,0.540374 0.357196,0.164859 1.080747,0.164859 0.421309,0 0.879253,-0.119065 0.457944,-0.128224 0.659439,-0.210654 h 0.09159 z"
           style="font-style:normal;font-variant:normal;font-weight:normal;font-stretch:normal;font-family:sans-serif;-inkscape-font-specification:sans-serif;fill:#ee2a14;fill-opacity:1;stroke-width:0.57513905"
           id="path4781"
            />
        <path
           d="m 90.379,37.864933 h -1.721869 v -5.825047 q 0,-0.705233 -0.08243,-1.318878 -0.08243,-0.622804 -0.302243,-0.970841 -0.228972,-0.384673 -0.659439,-0.567851 -0.430468,-0.192336 -1.117383,-0.192336 -0.705234,0 -1.47458,0.348037 -0.769346,0.348037 -1.474579,0.888411 v 7.638505 h -1.72187 V 23.613718 h 1.72187 v 5.156449 q 0.805981,-0.668599 1.666916,-1.044113 0.860934,-0.375514 1.767663,-0.375514 1.657757,0 2.527851,0.998318 0.870093,0.998318 0.870093,2.875888 z"
           style="font-style:normal;font-variant:normal;font-weight:normal;font-stretch:normal;font-family:sans-serif;-inkscape-font-specification:sans-serif;fill:#ee2a14;fill-opacity:1;stroke-width:0.57513905"
           id="path4783"
           />
        <path
           d="m 110.83078,24.227363 -4.70766,6.740934 4.6985,6.896636 h -2.09738 l -3.71851,-5.614393 -3.81009,5.614393 h -1.978319 l 4.753459,-6.814206 -4.643553,-6.823364 h 2.088223 l 3.67271,5.541121 3.75514,-5.541121 z"
           style="font-style:normal;font-variant:normal;font-weight:normal;font-stretch:normal;font-family:sans-serif;-inkscape-font-specification:sans-serif;fill:#ee2a14;fill-opacity:1;stroke-width:0.57513905"
           id="path4785"
            />
        <path
           d="m 120.65826,37.864933 h -1.71271 v -1.089907 q -0.22897,0.155701 -0.62281,0.439627 -0.38467,0.274766 -0.75102,0.439626 -0.43047,0.210654 -0.98916,0.348037 -0.5587,0.146542 -1.30972,0.146542 -1.38299,0 -2.34468,-0.915888 -0.96168,-0.915887 -0.96168,-2.335514 0,-1.163177 0.49458,-1.87757 0.50374,-0.723551 1.42879,-1.135701 0.9342,-0.412149 2.24392,-0.558691 1.30972,-0.146542 2.81178,-0.219813 v -0.265608 q 0,-0.586168 -0.21066,-0.970841 -0.20149,-0.384673 -0.58617,-0.604486 -0.36635,-0.210654 -0.87925,-0.283925 -0.51289,-0.07327 -1.07159,-0.07327 -0.67775,0 -1.51121,0.183177 -0.83346,0.174019 -1.72187,0.512898 h -0.0916 V 27.85428 q 0.50374,-0.137383 1.45626,-0.302243 0.95253,-0.16486 1.87757,-0.16486 1.08075,0 1.87757,0.183177 0.80598,0.174019 1.39215,0.604486 0.57701,0.421309 0.87925,1.089907 0.30225,0.668598 0.30225,1.657757 z m -1.71271,-2.518692 V 32.49783 q -0.78767,0.04579 -1.85926,0.137383 -1.06243,0.09159 -1.68523,0.265608 -0.74187,0.210654 -1.19981,0.659439 -0.45795,0.439626 -0.45795,1.218131 0,0.879252 0.53122,1.328037 0.53121,0.439626 1.62112,0.439626 0.90673,0 1.65776,-0.348037 0.75103,-0.357196 1.39215,-0.851776 z"
           style="font-style:normal;font-variant:normal;font-weight:normal;font-stretch:normal;font-family:sans-serif;-inkscape-font-specification:sans-serif;fill:#ee2a14;fill-opacity:1;stroke-width:0.57513905"
           id="path4787"
           />
        <path
           d="m 129.30424,37.773344 q -0.48542,0.128225 -1.06243,0.210654 -0.56785,0.08243 -1.01664,0.08243 -1.56617,0 -2.38131,-0.842616 -0.81514,-0.842617 -0.81514,-2.70187 v -5.440374 h -1.16317 v -1.447102 h 1.16317 v -2.94 h 1.72187 v 2.94 h 3.55365 v 1.447102 h -3.55365 v 4.66187 q 0,0.805981 0.0366,1.263925 0.0366,0.448785 0.25645,0.842617 0.20149,0.366355 0.54953,0.540374 0.3572,0.164859 1.08075,0.164859 0.42131,0 0.87925,-0.119065 0.45794,-0.128224 0.65944,-0.210654 h 0.0916 z"
           style="font-style:normal;font-variant:normal;font-weight:normal;font-stretch:normal;font-family:sans-serif;-inkscape-font-specification:sans-serif;fill:#ee2a14;fill-opacity:1;stroke-width:0.57513905"
           id="path4789"
            />
        <path
           d="m 140.67957,37.864933 h -2.27141 l -4.10317,-4.478692 -1.11739,1.06243 v 3.416262 h -1.72187 V 23.613718 h 1.72187 v 9.140561 l 4.97327,-5.119813 h 2.17066 l -4.75346,4.725981 z"
           style="font-style:normal;font-variant:normal;font-weight:normal;font-stretch:normal;font-family:sans-serif;-inkscape-font-specification:sans-serif;fill:#ee2a14;fill-opacity:1;stroke-width:0.57513905"
           id="path4791"
            />
        <path
           d="m 144.34312,25.921755 h -1.94168 v -1.785981 h 1.94168 z m -0.10991,11.943178 h -1.72187 V 27.634466 h 1.72187 z"
           style="font-style:normal;font-variant:normal;font-weight:normal;font-stretch:normal;font-family:sans-serif;-inkscape-font-specification:sans-serif;fill:#ee2a14;fill-opacity:1;stroke-width:0.57513905"
           id="path4793"
            />
        <path
           d="m 152.97078,37.773344 q -0.48542,0.128225 -1.06243,0.210654 -0.56785,0.08243 -1.01664,0.08243 -1.56616,0 -2.3813,-0.842616 -0.81514,-0.842617 -0.81514,-2.70187 v -5.440374 h -1.16318 v -1.447102 h 1.16318 v -2.94 h 1.72186 v 2.94 h 3.55365 v 1.447102 h -3.55365 v 4.66187 q 0,0.805981 0.0366,1.263925 0.0366,0.448785 0.25645,0.842617 0.20149,0.366355 0.54953,0.540374 0.3572,0.164859 1.08075,0.164859 0.42131,0 0.87925,-0.119065 0.45795,-0.128224 0.65944,-0.210654 h 0.0916 z"
           style="font-style:normal;font-variant:normal;font-weight:normal;font-stretch:normal;font-family:sans-serif;-inkscape-font-specification:sans-serif;fill:#ee2a14;fill-opacity:1;stroke-width:0.57513905"
           id="path4795"
            />
      </g>
    </g>
  </g>
</svg>
